<?xml version="1.0" encoding="UTF-8"?>
<svg version="1.1" xmlns="http://www.w3.org/2000/svg" width="430" height="432">
<path d="M0 0 C0.75761065 -0.00297112 1.51522129 -0.00594224 2.29578984 -0.0090034 C4.81863408 -0.01763145 7.34143054 -0.01919365 9.86428833 -0.02069092 C11.68008016 -0.02532346 13.49587102 -0.03034871 15.31166077 -0.03573608 C20.23578402 -0.04882459 25.15989366 -0.05529872 30.08403158 -0.05974674 C33.16722004 -0.06268469 36.25040485 -0.06679096 39.33359146 -0.07125092 C48.99944537 -0.08491978 58.66529085 -0.09458804 68.33115375 -0.09845281 C79.45202681 -0.1029248 90.57277643 -0.12043535 101.69361198 -0.1494534 C110.31220905 -0.17115342 118.93077161 -0.18116159 127.54939568 -0.18249393 C132.68573838 -0.1835365 137.82196496 -0.18932602 142.95827866 -0.20731354 C147.79942128 -0.22393751 152.6403623 -0.22588113 157.48152351 -0.21717453 C159.24498222 -0.21641161 161.00845241 -0.22064668 162.77188301 -0.23063278 C177.22449256 -0.30758453 191.42194026 0.97195963 205.17337036 5.76544189 C206.27491455 6.14394287 206.27491455 6.14394287 207.39871216 6.53009033 C221.13529499 11.46440583 233.03496526 18.79757204 244.17337036 28.14044189 C244.99321411 28.80817627 245.81305786 29.47591064 246.65774536 30.16387939 C268.99747056 49.03709551 282.76158627 78.476526 286.17337036 107.14044189 C286.65021884 113.36036691 286.59559428 119.59315377 286.5774231 125.82720947 C286.58314321 127.62975991 286.59011371 129.43230674 286.59822083 131.23484802 C286.61598764 136.0780583 286.6150151 140.92108578 286.60927844 145.7643187 C286.60616208 149.83178181 286.61230607 153.89921102 286.61831719 157.96666926 C286.63230715 167.57515994 286.63084783 177.1835616 286.61941528 186.79205322 C286.60794346 196.65039889 286.62200679 206.50847221 286.64881176 216.36678201 C286.67108175 224.88118661 286.67758074 233.39550643 286.67173535 241.90993804 C286.66839098 246.97302799 286.67061061 252.03594356 286.68798637 257.09900856 C286.70363473 261.86567916 286.69930529 266.63195138 286.68068123 271.39860725 C286.67704402 273.1301695 286.67995804 274.86176248 286.69056702 276.59329605 C286.88623402 311.2200316 274.56969791 341.57484192 250.42337036 366.32794189 C229.38252925 387.09071021 200.05450753 400.29563987 170.32260132 400.28761292 C169.57442005 400.2912896 168.82623878 400.29496629 168.05538535 400.29875439 C165.57029242 400.30968968 163.08524144 400.31361771 160.60012817 400.31744385 C158.80876028 400.32371646 157.01739367 400.33036396 155.22602844 400.33735657 C149.35952648 400.35831451 143.49302452 400.36875518 137.62649536 400.37872314 C135.59748064 400.38277459 133.56846605 400.38689163 131.5394516 400.39107323 C121.99800437 400.41011129 112.45656479 400.42434199 102.91510224 400.4326852 C91.94931282 400.44243527 80.98372645 400.46870224 70.01800847 400.50918609 C61.51229547 400.5394954 53.00664017 400.55416825 44.50087428 400.55746621 C39.4353893 400.55980092 34.37012153 400.56855239 29.30469513 400.59392738 C24.52750714 400.61747229 19.7506753 400.62133708 14.97344398 400.611166 C13.23703884 400.61067678 11.50061455 400.61681153 9.76426506 400.63072205 C-24.6744419 400.89078669 -55.63510067 388.40168683 -80.20162964 364.26544189 C-100.83158792 343.26606074 -114.00480202 313.93979367 -113.96707153 284.31417847 C-113.97004266 283.56866962 -113.97301378 282.82316077 -113.97607493 282.05506074 C-113.98468461 279.57911491 -113.9862636 277.10321787 -113.98776245 274.6272583 C-113.99239629 272.84249775 -113.99742171 271.05773818 -114.00280762 269.27297974 C-114.01588335 264.4376887 -114.02236769 259.60241152 -114.02681828 254.76710558 C-114.02975819 251.73834456 -114.03386481 248.70958724 -114.03832245 245.68082809 C-114.05198772 236.18209751 -114.06165783 226.68337549 -114.06552434 217.18463576 C-114.06999597 206.26244355 -114.08750634 195.34037704 -114.11652493 184.41822302 C-114.13823573 175.9490581 -114.14823369 167.47992829 -114.14956546 159.01073587 C-114.15060723 153.96547815 -114.15637938 148.92033875 -114.17438507 143.87511063 C-114.19102801 139.11931126 -114.19294376 134.36371706 -114.18424606 129.60789871 C-114.18348415 127.87711024 -114.18770443 126.14630998 -114.19770432 124.41555023 C-114.38480013 89.97027146 -103.12537125 59.07629274 -79.01412964 34.23809814 C-58.57403877 13.95611441 -29.02998106 -0.03616042 0 0 Z " fill="#6E56FD" transform="translate(125.82662963867188,17.85955810546875)"/>
<path d="M0 0 C0.64589584 -0.00671722 1.29179169 -0.01343445 1.95726013 -0.02035522 C4.09219053 -0.03935053 6.22680677 -0.04326022 8.36181641 -0.04541016 C9.84770843 -0.05183742 11.33359917 -0.05856573 12.81948853 -0.06558228 C15.93486464 -0.07755912 19.05012983 -0.08126273 22.16552734 -0.08007812 C26.15264992 -0.079875 30.13905921 -0.10716811 34.1260128 -0.14162254 C37.19557952 -0.16388953 40.26497459 -0.16791573 43.3346138 -0.16685867 C44.80420005 -0.16921529 46.27379098 -0.17804238 47.74329758 -0.19352341 C49.80202512 -0.21317954 51.85921504 -0.20734891 53.91796875 -0.1953125 C55.67311295 -0.19958755 55.67311295 -0.19958755 57.4637146 -0.20394897 C61.23394623 0.392688 62.88397708 1.65036309 65.58837891 4.29052734 C66.98204838 7.07786629 66.73104302 9.37824459 66.74951172 12.49682617 C66.75911926 13.80190628 66.76872681 15.10698639 66.77862549 16.45161438 C66.78347371 17.88359401 66.78775248 19.31557567 66.79150391 20.74755859 C66.79725585 22.21245832 66.80301358 23.67735801 66.80877686 25.14225769 C66.81928861 28.21650544 66.82512985 31.29072703 66.82861328 34.36499023 C66.8340927 38.29931223 66.85810779 42.23328721 66.88658524 46.1675005 C66.90523558 49.19501241 66.91041852 52.22244122 66.91194916 55.25000572 C66.91497178 56.70004863 66.92298717 58.15009022 66.93613434 59.60007668 C66.95323989 61.63199616 66.94946326 63.66405874 66.94482422 65.69604492 C66.95029266 67.42906609 66.95029266 67.42906609 66.95587158 69.19709778 C66.44612529 73.48797036 64.79576819 76.08313806 61.77587891 79.10302734 C58.78393858 80.72722352 56.95063047 80.770849 53.58837891 80.29052734 C50.11081971 78.07753512 47.9976554 76.15439243 46.58837891 72.29052734 C46.4195738 69.42773803 46.35563356 66.6661678 46.39306641 63.80615234 C46.3958963 62.99055847 46.3987262 62.1749646 46.40164185 61.33465576 C46.41281333 58.73646206 46.43791216 56.1386164 46.46337891 53.54052734 C46.47341264 51.77620941 46.4825378 50.01188607 46.49072266 48.24755859 C46.51274272 43.92841462 46.54725157 39.60952994 46.58837891 35.29052734 C45.92837891 35.29052734 45.26837891 35.29052734 44.58837891 35.29052734 C44.36150391 35.84740234 44.13462891 36.40427734 43.90087891 36.97802734 C42.21287854 39.95212322 40.12161374 42.01061599 37.58837891 44.29052734 C36.92837891 44.29052734 36.26837891 44.29052734 35.58837891 44.29052734 C35.25837891 45.28052734 34.92837891 46.27052734 34.58837891 47.29052734 C33.92837891 47.29052734 33.26837891 47.29052734 32.58837891 47.29052734 C32.32025391 47.92990234 32.05212891 48.56927734 31.77587891 49.22802734 C30.58837891 51.29052734 30.58837891 51.29052734 27.58837891 52.29052734 C27.25837891 53.28052734 26.92837891 54.27052734 26.58837891 55.29052734 C25.92837891 55.29052734 25.26837891 55.29052734 24.58837891 55.29052734 C24.32025391 55.92990234 24.05212891 56.56927734 23.77587891 57.22802734 C22.58837891 59.29052734 22.58837891 59.29052734 19.58837891 60.29052734 C19.58837891 60.95052734 19.58837891 61.61052734 19.58837891 62.29052734 C17.96613351 64.00046168 16.29424466 65.66400418 14.58837891 67.29052734 C14.03150391 67.88865234 13.47462891 68.48677734 12.90087891 69.10302734 C11.58837891 70.29052734 11.58837891 70.29052734 9.58837891 70.29052734 C9.34087891 70.90927734 9.09337891 71.52802734 8.83837891 72.16552734 C7.35097522 74.69411361 6.15159882 75.00891739 3.58837891 76.29052734 C3.30631592 76.87648682 3.02425293 77.46244629 2.73364258 78.06616211 C1.30078042 80.84910969 -0.52622531 82.66438945 -2.73583984 84.88037109 C-4.03231445 86.18071289 -4.03231445 86.18071289 -5.35498047 87.50732422 C-6.26054687 88.40515625 -7.16611328 89.30298828 -8.09912109 90.22802734 C-9.4284668 91.56897461 -9.4284668 91.56897461 -10.78466797 92.93701172 C-23.1274519 105.24325151 -23.1274519 105.24325151 -28.99755859 105.36474609 C-37.16842943 102.79381992 -43.20161303 95.84025176 -48.41162109 89.29052734 C-50.39119052 87.59964513 -52.39107305 85.93222263 -54.41162109 84.29052734 C-57.7184537 81.14116296 -60.56360112 77.85055231 -63.41162109 74.29052734 C-65.0553025 72.60118812 -66.72590869 70.9379281 -68.41162109 69.29052734 C-69.05744141 68.58798828 -69.70326172 67.88544922 -70.36865234 67.16162109 C-71.06345703 66.42041016 -71.75826172 65.67919922 -72.47412109 64.91552734 C-73.12509766 64.20654297 -73.77607422 63.49755859 -74.44677734 62.76708984 C-76.27768833 61.05760452 -76.27768833 61.05760452 -78.47021484 61.42333984 C-83.6300883 63.72815253 -87.03147226 67.92904498 -90.41162109 72.29052734 C-93.03662109 75.10302734 -93.03662109 75.10302734 -95.41162109 77.29052734 C-96.07162109 77.29052734 -96.73162109 77.29052734 -97.41162109 77.29052734 C-97.63849609 77.84740234 -97.86537109 78.40427734 -98.09912109 78.97802734 C-100.38871823 83.01207943 -103.77229394 85.77362454 -107.34912109 88.66552734 C-110.25572698 91.03552907 -112.5789878 93.71590117 -114.97412109 96.59130859 C-117.67124205 99.77948146 -120.54024532 102.62023829 -123.84912109 105.16552734 C-125.99195413 106.94251083 -127.49150537 108.53019553 -129.22412109 110.66552734 C-133.16991285 115.36193244 -137.43362894 119.70660731 -143.59912109 120.91552734 C-147.8268003 119.97604308 -150.26077924 117.93458714 -152.72412109 114.41552734 C-153.68266303 111.45276137 -153.76501412 109.40738004 -153.41162109 106.29052734 C-151.73891718 104.0037761 -150.19536801 102.19722325 -148.20996094 100.22436523 C-147.66866232 99.6635856 -147.1273637 99.10280596 -146.56966209 98.525033 C-144.86439477 96.76577152 -143.13938171 95.02767251 -141.41162109 93.29052734 C-140.3680091 92.22247032 -139.32543697 91.15339606 -138.28399658 90.08322144 C-135.09178766 86.81536047 -131.86734999 83.58040807 -128.63818359 80.34912109 C-127.45894681 79.16665826 -126.2797796 77.98412605 -125.10067749 76.80152893 C-122.65708287 74.35201682 -120.21150302 71.90450742 -117.76464844 69.45825195 C-114.63950951 66.3332156 -111.52136854 63.20129246 -108.40484047 60.06767178 C-105.98383632 57.63553814 -103.55828969 55.2079741 -101.13145065 52.78166389 C-99.97926258 51.62830217 -98.82868073 50.47333339 -97.67979813 49.316679 C-96.07772269 47.70476048 -94.46938061 46.09935398 -92.859375 44.49536133 C-91.94958893 43.58415024 -91.03980286 42.67293915 -90.10244751 41.7341156 C-86.11744823 38.1152655 -83.09996555 35.43783551 -77.65087891 34.96240234 C-71.53543046 36.13890987 -67.69195016 41.21573813 -63.58349609 45.54052734 C-62.1911157 46.95890852 -60.79872796 48.37728257 -59.40590286 49.79522705 C-57.46828544 51.77651318 -55.5471596 53.77341887 -53.62585449 55.77050781 C-50.25305572 59.27180754 -46.86027308 62.75362035 -43.45880127 66.22705078 C-41.65145581 68.07590891 -39.85261148 69.93312291 -38.06317139 71.79931641 C-37.24842346 72.63688477 -36.43367554 73.47445312 -35.59423828 74.33740234 C-34.88112488 75.07829102 -34.16801147 75.81917969 -33.43328857 76.58251953 C-30.7721137 78.91679062 -30.7721137 78.91679062 -27.41162109 79.29052734 C-25.26486867 77.62488589 -23.50849427 76.01887526 -21.63330078 74.07983398 C-21.06700958 73.51427292 -20.50071838 72.94871185 -19.91726685 72.36601257 C-18.04392024 70.48917583 -16.18891128 68.59523542 -14.33349609 66.70068359 C-13.03993054 65.39779507 -11.74525839 64.09600437 -10.44952393 62.79527283 C-7.03864998 59.36528887 -3.64305382 55.92055617 -0.25036621 52.47259521 C3.21286504 48.95825849 6.69025662 45.45799678 10.16650391 41.95654297 C16.98777285 35.08161566 23.79299341 28.19103299 30.58837891 21.29052734 C28.95425049 21.28436401 28.95425049 21.28436401 27.28710938 21.27807617 C23.22755252 21.25622927 19.16895728 21.20188305 15.10986328 21.13793945 C13.35637663 21.11480766 11.60275199 21.10037506 9.84912109 21.0949707 C7.32123307 21.08564535 4.79550073 21.04458099 2.26806641 20.99755859 C1.10052322 21.00345757 1.10052322 21.00345757 -0.09060669 21.00947571 C-5.83846424 20.85696525 -8.38822269 19.41098312 -12.41162109 15.29052734 C-13.83824328 12.43728297 -13.72195977 10.45598185 -13.41162109 7.29052734 C-9.67592886 1.6225805 -6.68726965 0.04362929 0 0 Z " fill="#FBFAFD" transform="translate(255.41162109375,157.70947265625)"/>
<path d="M0 0 C22.12596869 10.81714025 37.78499841 37.88722767 45.75 60.3125 C50.19401145 74.72216398 51.44777334 88.6873767 51.40405273 103.68676758 C51.40977284 105.48931802 51.41674335 107.29186484 51.42485046 109.09440613 C51.44261728 113.93761641 51.44164474 118.78064389 51.43590808 123.62387681 C51.43279172 127.69133991 51.43893571 131.75876912 51.44494683 135.82622737 C51.45893679 145.43471804 51.45747747 155.04311971 51.44604492 164.65161133 C51.4345731 174.509957 51.44863643 184.36803031 51.4754414 194.22634012 C51.49771139 202.74074472 51.50421038 211.25506453 51.49836498 219.76949614 C51.49502062 224.8325861 51.49724025 229.89550167 51.51461601 234.95856667 C51.53026437 239.72523726 51.52593493 244.49150948 51.50731087 249.25816536 C51.50367366 250.98972761 51.50658768 252.72132059 51.51719666 254.45285416 C51.71286366 289.07958971 39.39632755 319.43440003 15.25 344.1875 C2.94205724 356.33278272 -12.12299615 366.62850802 -29 371 C-29 370.34 -29 369.68 -29 369 C-28.01 368.67 -27.02 368.34 -26 368 C-25.67 367.34 -25.34 366.68 -25 366 C-22.93359375 365.5859375 -22.93359375 365.5859375 -20.4375 365.375 C-19.19806641 365.26285156 -19.19806641 365.26285156 -17.93359375 365.1484375 C-17.29550781 365.09945313 -16.65742188 365.05046875 -16 365 C-15.67 364.01 -15.34 363.02 -15 362 C-13.824375 361.5359375 -13.824375 361.5359375 -12.625 361.0625 C-9.89695993 360.22125338 -9.89695993 360.22125338 -8.5 358 C-6.59256473 355.45675298 -4.98604033 354.99534678 -2 354 C-1.071875 353.62875 -0.14375 353.2575 0.8125 352.875 C1.8953125 352.441875 1.8953125 352.441875 3 352 C2.67 350.35 2.34 348.7 2 347 C2.99 346.67 3.98 346.34 5 346 C5.33 345.34 5.66 344.68 6 344 C6.721875 344.103125 7.44375 344.20625 8.1875 344.3125 C12.26291362 343.85967626 13.45843581 342.1435136 16 339 C16.495 337.783125 16.99 336.56625 17.5 335.3125 C19 332 19 332 21.625 330.75 C22.40875 330.5025 23.1925 330.255 24 330 C24.33 329.01 24.66 328.02 25 327 C25.33 326.67 25.66 326.34 26 326 C25.34 325.67 24.68 325.34 24 325 C24.33 323.68 24.66 322.36 25 321 C25.33 321.66 25.66 322.32 26 323 C30.14161268 321.27432805 31.56778184 319.289707 33.3125 315.3125 C33.89011943 313.88100837 34.45766115 312.445227 35 311 C35.99 311 36.98 311 38 311 C37.938125 310.319375 37.87625 309.63875 37.8125 308.9375 C38.05193749 305.18631267 39.48231687 302.41478705 41 299 C41 298.01 41 297.02 41 296 C41.66 295.67 42.32 295.34 43 295 C43.60430292 292.68687878 44.11048541 290.34763596 44.5625 288 C45.90613267 281.09386733 45.90613267 281.09386733 47 280 C46.96780474 278.16487042 46.93205171 276.32918808 46.83984375 274.49609375 C47 272 47 272 47.99497795 268.3193512 C49.01976206 264.29462729 49.24649539 260.56079058 49.24050903 256.39428711 C49.24307231 255.31210152 49.24307231 255.31210152 49.24568737 254.20805359 C49.24895575 251.81437938 49.23802285 249.4209917 49.22705078 247.02734375 C49.22648609 245.3020478 49.22680435 243.57675136 49.22793579 241.85145569 C49.22850805 237.18468042 49.21677424 232.51800861 49.20278788 227.85125732 C49.1902594 222.96790089 49.18910835 218.0845419 49.18673706 213.20117188 C49.18052851 203.96138963 49.16412615 194.72165489 49.14403808 185.48189354 C49.12165963 174.95954487 49.11068076 164.4371939 49.10064721 153.91482735 C49.07975937 132.27652508 49.04459555 110.63826554 49 89 C48.67 89 48.34 89 48 89 C47.67 84.71 47.34 80.42 47 76 C46.34 76 45.68 76 45 76 C45.02320313 75.37351562 45.04640625 74.74703125 45.0703125 74.1015625 C45.08835937 73.28429687 45.10640625 72.46703125 45.125 71.625 C45.14820313 70.81289062 45.17140625 70.00078125 45.1953125 69.1640625 C45.21370051 66.78657757 45.21370051 66.78657757 43 65 C42.01 65.99 41.02 66.98 40 68 C40.17789063 66.96552734 40.17789063 66.96552734 40.359375 65.91015625 C41.32309405 58.88464438 40.77804896 54.07424833 37 48 C36.34 47.34 35.68 46.68 35 46 C33.72677271 43.67823258 32.84137584 41.52412752 32 39 C31.67 39 31.34 39 31 39 C30.34 36.69 29.68 34.38 29 32 C28.38125 31.95875 27.7625 31.9175 27.125 31.875 C26.42375 31.58625 25.7225 31.2975 25 31 C24.690625 30.030625 24.38125 29.06125 24.0625 28.0625 C23.31767426 24.82478016 23.31767426 24.82478016 20.5625 23.625 C17.95384291 22.88152191 17.95384291 22.88152191 15 23 C15 20.03 15 17.06 15 14 C14.01 14 13.02 14 12 14 C11.34 14.66 10.68 15.32 10 16 C8.3372974 13.32521756 7.00016187 11.0004856 6 8 C5.505 7.01 5.505 7.01 5 6 C3.35 6.33 1.7 6.66 0 7 C0 4.69 0 2.38 0 0 Z " fill="#871AD6" transform="translate(361,40)"/>
<path d="M0 0 C0.33 0 0.66 0 1 0 C1.16788373 1.62487471 1.33426787 3.24990442 1.5 4.875 C1.5928125 5.77992187 1.685625 6.68484375 1.78125 7.6171875 C2 10 2 10 2 12 C0.02 12 -1.96 12 -4 12 C-4.144375 12.78375 -4.28875 13.5675 -4.4375 14.375 C-5 17 -5 17 -6 19 C-6.23235944 21.26765601 -6.38101703 23.53361414 -6.5234375 25.80859375 C-7 28 -7 28 -8.4375 29.4140625 C-13.63043115 34.68488762 -13.38824704 46.4080492 -13.7890625 53.44140625 C-14 56 -14 56 -14.50440598 57.75081253 C-15.15789243 60.71657375 -15.1327485 63.50788835 -15.14044189 66.54559326 C-15.14341302 67.20177997 -15.14638414 67.85796668 -15.1494453 68.53403783 C-15.15811323 70.73201474 -15.15963905 72.92993705 -15.16113281 75.12792969 C-15.16576308 76.70532344 -15.17078802 78.28271608 -15.17617798 79.86010742 C-15.18930141 84.15060096 -15.19574918 88.44107884 -15.20018864 92.73158932 C-15.20312514 95.42200617 -15.20723148 98.11241883 -15.21169281 100.80283356 C-15.22538009 109.24760059 -15.23503542 117.69235791 -15.2388947 126.13713527 C-15.24335044 135.8311238 -15.26077637 145.52496956 -15.2898953 155.21891475 C-15.3116886 162.74033024 -15.32160861 170.26170616 -15.32293582 177.78315282 C-15.32397321 182.25969388 -15.32964653 186.73610102 -15.34775543 191.21260834 C-16.34987582 223.11366265 -16.34987582 223.11366265 -10 254 C-9 257 -9 257 -8.55078125 258.8828125 C-7.13862143 264.31111477 -5.03444737 269.76549865 -1.8125 274.375 C-0.14825996 276.78527868 0.52976383 278.17858295 1 281 C1.185625 281.7425 1.37125 282.485 1.5625 283.25 C1.706875 283.8275 1.85125 284.405 2 285 C2.66 285 3.32 285 4 285 C4.33 285.99 4.66 286.98 5 288 C6.11375 288.3403125 6.11375 288.3403125 7.25 288.6875 C10.92199392 290.44004255 11.9239944 292.80296931 13.7890625 296.3203125 C14.18867187 296.87460937 14.58828125 297.42890625 15 298 C15.99 298 16.98 298 18 298 C17.95875 298.7425 17.9175 299.485 17.875 300.25 C18.00957989 303.21075767 18.42710978 304.5226979 20 307 C21.92691633 308.32380339 21.92691633 308.32380339 24.125 309.25 C24.84945312 309.58515625 25.57390625 309.9203125 26.3203125 310.265625 C26.87460937 310.50796875 27.42890625 310.7503125 28 311 C28 310.34 28 309.68 28 309 C30 309.66666667 32 310.33333333 34 311 C33.979375 311.928125 33.95875 312.85625 33.9375 313.8125 C33.84230396 317.02286011 33.84230396 317.02286011 35 320 C37.01508358 320.73323796 37.01508358 320.73323796 39 321 C39 321.66 39 322.32 39 323 C41.70792192 324.11502667 44.40807793 325.13602598 47.1875 326.0625 C50 327 50 327 52 328 C51.67 328.66 51.34 329.32 51 330 C52.32 330.33 53.64 330.66 55 331 C53.40234375 331.70703125 53.40234375 331.70703125 51 332 C22.86751789 319.78602798 1.86522246 294.12355179 -9.5 266.33203125 C-14.2346584 253.6358193 -17.15772962 240.74789705 -17.14044189 227.17373657 C-17.14341302 226.42822772 -17.14638414 225.68271888 -17.1494453 224.91461885 C-17.15805497 222.43867302 -17.15963396 219.96277597 -17.16113281 217.48681641 C-17.16576665 215.70205585 -17.17079207 213.91729628 -17.17617798 212.13253784 C-17.18925371 207.2972468 -17.19573806 202.46196963 -17.20018864 197.62666368 C-17.20312855 194.59790266 -17.20723517 191.56914534 -17.21169281 188.5403862 C-17.22535808 179.04165561 -17.23502819 169.5429336 -17.2388947 160.04419386 C-17.24336634 149.12200165 -17.2608767 138.19993515 -17.2898953 127.27778113 C-17.31160609 118.80861621 -17.32160405 110.33948639 -17.32293582 101.87029397 C-17.32397759 96.82503626 -17.32974974 91.77989686 -17.34775543 86.73466873 C-17.36439837 81.97886936 -17.36631412 77.22327517 -17.35761642 72.46745682 C-17.35685451 70.73666834 -17.36107479 69.00586809 -17.37107468 67.27510834 C-17.50107332 43.34170612 -12.25027595 22.20280482 -1 1 C-0.67 0.67 -0.34 0.34 0 0 Z " fill="#3A75DD" transform="translate(29,75)"/>
<path d="M0 0 C1.4540625 0.0309375 1.4540625 0.0309375 2.9375 0.0625 C2.9375 1.3825 2.9375 2.7025 2.9375 4.0625 C3.58493164 4.49667236 4.23236328 4.93084473 4.89941406 5.37817383 C6.9375 7.0625 6.9375 7.0625 7.48339844 10.1784668 C7.51481934 12.07592651 7.51481934 12.07592651 7.546875 14.01171875 C7.56341125 14.70199661 7.57994751 15.39227448 7.59698486 16.10346985 C7.64548734 18.31906494 7.66673773 20.53398932 7.6875 22.75 C7.71569044 24.19079067 7.74562214 25.63154838 7.77734375 27.07226562 C7.9213595 34.22067893 7.94026296 41.36608067 7.9140625 48.515625 C7.90086249 55.20596958 8.20384907 61.81042928 8.7578125 68.47460938 C9.16058194 74.43056254 8.8557314 79.45918595 5.1875 84.4375 C-0.06538838 88.23125272 -6.02135778 86.93510943 -12.0625 86.0625 C-12.3925 85.0725 -12.7225 84.0825 -13.0625 83.0625 C-14.0525 82.0725 -14.0525 82.0725 -15.0625 81.0625 C-15.23752995 78.48146694 -15.29412279 76.00941837 -15.2578125 73.4296875 C-15.2549826 72.67785187 -15.25215271 71.92601624 -15.24923706 71.15139771 C-15.23802874 68.74660422 -15.21292352 66.34218119 -15.1875 63.9375 C-15.17747102 62.30859912 -15.16834503 60.67969242 -15.16015625 59.05078125 C-15.13808735 55.05454444 -15.10355351 51.05858506 -15.0625 47.0625 C-18.44564582 48.50884713 -18.44564582 48.50884713 -20.3125 51.6875 C-20.56 52.47125 -20.8075 53.255 -21.0625 54.0625 C-21.7225 53.4025 -22.3825 52.7425 -23.0625 52.0625 C-27.11519101 56.69716401 -27.11519101 56.69716401 -30.0625 62.0625 C-30.3925 61.4025 -30.7225 60.7425 -31.0625 60.0625 C-32.04725214 61.16168816 -33.02510473 62.2670602 -34 63.375 C-34.81791016 64.29732422 -34.81791016 64.29732422 -35.65234375 65.23828125 C-37.26331559 67.11491958 -37.26331559 67.11491958 -38.0625 70.0625 C-38.619375 70.18625 -39.17625 70.31 -39.75 70.4375 C-42.26462772 71.11712911 -43.25204123 71.93561423 -45.1875 73.625 C-48.0625 76.0625 -48.0625 76.0625 -50.0625 76.0625 C-50.31 76.64 -50.5575 77.2175 -50.8125 77.8125 C-52.22849656 80.36129381 -54.00973215 82.00973215 -56.0625 84.0625 C-56.3925 85.0525 -56.7225 86.0425 -57.0625 87.0625 C-58.5475 87.5575 -58.5475 87.5575 -60.0625 88.0625 C-60.0625 89.0525 -60.0625 90.0425 -60.0625 91.0625 C-60.701875 91.18625 -61.34125 91.31 -62 91.4375 C-63.0209375 91.746875 -63.0209375 91.746875 -64.0625 92.0625 C-64.5575 93.0525 -64.5575 93.0525 -65.0625 94.0625 C-66.0525 93.7325 -67.0425 93.4025 -68.0625 93.0625 C-64.72916667 89.72916667 -61.39583333 86.39583333 -58.0625 83.0625 C-57.17949219 82.17820312 -56.29648437 81.29390625 -55.38671875 80.3828125 C-53.78833257 78.78711269 -52.17962975 77.2017015 -50.5625 75.625 C-48.69268995 73.7084447 -47.04008153 71.83013118 -45.375 69.75 C-44.611875 68.863125 -43.84875 67.97625 -43.0625 67.0625 C-42.4025 67.0625 -41.7425 67.0625 -41.0625 67.0625 C-41.0625 66.4025 -41.0625 65.7425 -41.0625 65.0625 C-39.7421875 63.80078125 -39.7421875 63.80078125 -37.9375 62.375 C-35.39534884 60.27606958 -33.21110266 58.17659665 -31.125 55.625 C-28.34746481 52.25174681 -25.22115481 49.52272726 -21.890625 46.70703125 C-19.66208817 44.70230047 -17.91352293 42.41187525 -16.0625 40.0625 C-15.4025 40.0625 -14.7425 40.0625 -14.0625 40.0625 C-14.04848145 41.69662842 -14.04848145 41.69662842 -14.03417969 43.36376953 C-13.99417019 47.42326054 -13.92838171 51.48200241 -13.85498047 55.54101562 C-13.82683416 57.29449812 -13.80558815 59.04810599 -13.79150391 60.80175781 C-13.76998573 63.32942599 -13.72329298 65.85559684 -13.671875 68.3828125 C-13.67064636 69.16117462 -13.66941772 69.93953674 -13.66815186 70.7414856 C-13.52996403 75.92959865 -12.47844765 78.93762732 -9.0625 83.0625 C-6.20925563 84.48912219 -4.22795451 84.37283868 -1.0625 84.0625 C2.27511045 81.91159549 3.67220933 80.85837201 4.9375 77.0625 C5.05183502 74.95801471 5.10681862 72.85013304 5.13037109 70.74267578 C5.15446548 68.78516891 5.15446548 68.78516891 5.17904663 66.78811646 C5.1905326 65.3613551 5.20114139 63.93458646 5.2109375 62.5078125 C5.21892302 61.42907679 5.21892302 61.42907679 5.22706985 60.32854843 C5.25376954 56.52324236 5.27315601 52.71796876 5.28759766 48.91259766 C5.30094595 45.76581817 5.32881774 42.61968578 5.36962891 39.47314453 C5.4189517 35.67003026 5.44371747 31.86750355 5.45082474 28.0640831 C5.45753467 26.61678525 5.4727504 25.16950039 5.49671555 23.72238541 C5.52837141 21.69552573 5.52540186 19.66821536 5.52099609 17.64111328 C5.52908295 16.48878204 5.5371698 15.33645081 5.54550171 14.14920044 C4.72867688 10.00234767 3.31430008 8.55404654 -0.0625 6.0625 C-3.23672444 5.33795648 -3.23672444 5.33795648 -6.73291016 5.47900391 C-7.38231064 5.47666748 -8.03171112 5.47433105 -8.70079041 5.47192383 C-10.83521478 5.47031624 -12.96744696 5.5042607 -15.1015625 5.5390625 C-16.58937806 5.54585615 -18.07720441 5.5505758 -19.56503296 5.55331421 C-23.47363704 5.56670289 -27.38132801 5.61096807 -31.28961182 5.66088867 C-34.4823915 5.69632156 -37.67507965 5.70937389 -40.86802101 5.72130775 C-44.6750921 5.7360951 -48.4820664 5.7613064 -52.2890625 5.7890625 C-53.37853117 5.79642866 -53.37853117 5.79642866 -54.49000931 5.80394363 C-56.54373947 5.82022474 -58.59725144 5.84362856 -60.65087891 5.86962891 C-62.40363632 5.88891953 -62.40363632 5.88891953 -64.19180298 5.90859985 C-67.13424165 5.93919853 -67.13424165 5.93919853 -70.0625 7.0625 C-70.0625 6.0725 -70.0625 5.0825 -70.0625 4.0625 C-68.97921921 4.0470388 -68.97921921 4.0470388 -67.87405396 4.03126526 C-61.07573885 3.9333807 -54.27750744 3.83087919 -47.47934151 3.72316074 C-43.98414403 3.66794228 -40.48893816 3.61452404 -36.99365234 3.56518555 C-32.97744504 3.50841564 -28.96139555 3.44387781 -24.9453125 3.37890625 C-23.68695587 3.36219376 -22.42859924 3.34548126 -21.1321106 3.32826233 C-19.97105804 3.30831711 -18.81000549 3.28837189 -17.61376953 3.26782227 C-16.58784698 3.25227798 -15.56192444 3.2367337 -14.50491333 3.22071838 C-12.05545812 3.2208369 -12.05545812 3.2208369 -10.0625 2.0625 C-10.0625 2.7225 -10.0625 3.3825 -10.0625 4.0625 C-7.7525 4.0625 -5.4425 4.0625 -3.0625 4.0625 C-3.5575 2.5775 -3.5575 2.5775 -4.0625 1.0625 C-3.0625 0.0625 -3.0625 0.0625 0 0 Z " fill="#8751E9" transform="translate(316.0625,152.9375)"/>
<path d="M0 0 C0.99 0.33 1.98 0.66 3 1 C2.43259094 1.56518845 1.86518188 2.13037689 1.28057861 2.71269226 C-4.07737482 8.05057331 -9.43289147 13.39088195 -14.78571701 18.73390484 C-17.53745607 21.4804348 -20.29011364 24.22603063 -23.04492188 26.96948242 C-25.70553151 29.61919296 -28.36366068 32.27136899 -31.02011871 34.92524147 C-32.03188145 35.9351626 -33.04452107 36.94420606 -34.05806732 37.95233727 C-35.48214077 39.36910708 -36.90275759 40.78934874 -38.32324219 42.2097168 C-39.1315448 43.0157988 -39.93984741 43.8218808 -40.77264404 44.65238953 C-45.29483458 49.16920547 -45.29483458 49.16920547 -47.5 54.9375 C-46.87263356 58.78011945 -45.39792409 60.96733129 -43 64 C-40.13295216 65.43352392 -38.18459814 65.32038987 -35 65 C-32.09074252 63.24663086 -32.09074252 63.24663086 -29.4375 60.8125 C-28.52871094 60.03519531 -27.61992188 59.25789063 -26.68359375 58.45703125 C-24.04478414 56.04100324 -21.50683932 53.55217095 -19 51 C-18.67 51.99 -18.34 52.98 -18 54 C-18.99 54.33 -19.98 54.66 -21 55 C-21.268125 55.556875 -21.53625 56.11375 -21.8125 56.6875 C-23.57902504 60.12757508 -26.21136826 62.33261312 -29 65 C-28.505 65.99 -28.505 65.99 -28 67 C-33.70690634 67.99250545 -39.21408489 68.10477512 -45 68 C-45.99 65.03 -45.99 65.03 -47 62 C-47.99 62 -48.98 62 -50 62 C-49.67 58.37 -49.34 54.74 -49 51 C-49.99 51 -50.98 51 -52 51 C-51.67 50.34 -51.34 49.68 -51 49 C-48.9375 48.375 -48.9375 48.375 -47 48 C-47 47.01 -47 46.02 -47 45 C-45.02 44.505 -45.02 44.505 -43 44 C-43 42.68 -43 41.36 -43 40 C-41.35498043 37.74892059 -40.14603773 37.0511132 -37.5 36.125 C-34.29837043 34.68426669 -33.68956383 33.01183117 -32 30 C-30.04866059 28.34431807 -28.28292596 27.14146298 -26 26 C-25.87625 25.071875 -25.87625 25.071875 -25.75 24.125 C-25 22 -25 22 -22.0625 20.25 C-19 19 -19 19 -17 19 C-16.9071875 18.1646875 -16.9071875 18.1646875 -16.8125 17.3125 C-15.67747594 14.08204692 -13.39558329 12.39558329 -11 10 C-11 9.01 -11 8.02 -11 7 C-10.01 6.67 -9.02 6.34 -8 6 C-7.67 5.34 -7.34 4.68 -7 4 C-5.68 4.33 -4.36 4.66 -3 5 C-3 4.34 -3 3.68 -3 3 C-2.34 3 -1.68 3 -1 3 C-0.67 2.01 -0.34 1.02 0 0 Z " fill="#6370EE" transform="translate(150,212)"/>
<path d="M0 0 C0.66 0 1.32 0 2 0 C2.9765625 1.72526042 3.953125 3.45052083 4.9296875 5.17578125 C5.89428581 6.81982289 6.94267059 8.41400588 8 10 C8.5625 11.9375 8.5625 11.9375 9 14 C9.185625 14.7425 9.37125 15.485 9.5625 16.25 C9.706875 16.8275 9.85125 17.405 10 18 C10.66 18 11.32 18 12 18 C12.33 18.99 12.66 19.98 13 21 C13.7425 21.226875 14.485 21.45375 15.25 21.6875 C18.92199392 23.44004255 19.9239944 25.80296931 21.7890625 29.3203125 C22.18867187 29.87460937 22.58828125 30.42890625 23 31 C23.99 31 24.98 31 26 31 C25.95875 31.7425 25.9175 32.485 25.875 33.25 C26.00957989 36.21075767 26.42710978 37.5226979 28 40 C29.92691633 41.32380339 29.92691633 41.32380339 32.125 42.25 C32.84945312 42.58515625 33.57390625 42.9203125 34.3203125 43.265625 C34.87460937 43.50796875 35.42890625 43.7503125 36 44 C36 43.34 36 42.68 36 42 C38 42.66666667 40 43.33333333 42 44 C41.979375 44.928125 41.95875 45.85625 41.9375 46.8125 C41.84230396 50.02286011 41.84230396 50.02286011 43 53 C45.01508358 53.73323796 45.01508358 53.73323796 47 54 C47 54.66 47 55.32 47 56 C49.70792192 57.11502667 52.40807793 58.13602598 55.1875 59.0625 C58 60 58 60 60 61 C59.505 61.99 59.505 61.99 59 63 C60.32 63.33 61.64 63.66 63 64 C61.40234375 64.70703125 61.40234375 64.70703125 59 65 C32.51187006 53.49993837 11.10547256 29.21263776 0 3 C0 2.01 0 1.02 0 0 Z " fill="#476FE8" transform="translate(21,342)"/>
<path d="M0 0 C1.83113167 -0.00107489 3.662263 -0.00301663 5.49339294 -0.00575256 C10.4331787 -0.01056969 15.3728731 -0.00298542 20.31264782 0.00720048 C25.49653698 0.01602962 30.6804237 0.01422262 35.86431885 0.01383972 C44.56271887 0.01477398 53.26108383 0.02342721 61.95947266 0.03710938 C72.00474323 0.05285208 82.04997551 0.05810664 92.09525752 0.05737382 C102.81294713 0.05669765 113.53062206 0.06364039 124.24830723 0.07282043 C127.3281847 0.07494784 130.40805979 0.07566106 133.48793793 0.07605934 C138.33071345 0.07706623 143.17345703 0.08319112 148.016222 0.09322548 C149.78990801 0.09613763 151.56359769 0.09737846 153.337286 0.09679794 C155.76425858 0.09630432 158.1911428 0.10199132 160.61810303 0.10920715 C161.31422219 0.10765855 162.01034135 0.10610995 162.72755504 0.10451442 C167.43626304 0.12752161 171.94530593 0.589497 176.59863281 1.24291992 C176.59863281 1.57291992 176.59863281 1.90291992 176.59863281 2.24291992 C175.22453452 2.24015454 175.22453452 2.24015454 173.82267666 2.2373333 C151.53019756 2.19315977 129.23772602 2.16006601 106.94521236 2.13929558 C96.16471217 2.12898412 85.3842412 2.11492623 74.60375977 2.09204102 C65.20722339 2.07210321 55.81070819 2.05920254 46.41415125 2.05474293 C41.43901198 2.05213623 36.46393326 2.04601195 31.4888134 2.03145981 C26.8046014 2.01786977 22.12047481 2.01370018 17.43624496 2.01670456 C15.71858188 2.01615504 14.0009159 2.01218607 12.28326988 2.00450897 C9.93405793 1.99452543 7.58516637 1.99696339 5.23594666 2.00241089 C3.92239165 2.0005673 2.60883665 1.99872372 1.25547695 1.99682426 C-2.54563135 2.25262851 -5.76601081 3.1468835 -9.40136719 4.24291992 C-11.97558594 3.84057617 -11.97558594 3.84057617 -14.40136719 3.24291992 C-16.34257404 3.32592325 -18.28174353 3.47530588 -20.21386719 3.68041992 C-24.9817797 4.14011977 -29.61455111 4.33497408 -34.40136719 4.24291992 C-24.30285788 -1.34697483 -11.19446253 -0.03839339 0 0 Z " fill="#6E54D4" transform="translate(136.4013671875,17.757080078125)"/>
<path d="M0 0 C0.66 0.66 1.32 1.32 2 2 C3.65 1.34 5.3 0.68 7 0 C7 0.66 7 1.32 7 2 C6.01 2 5.02 2 4 2 C4.10248047 3.33998047 4.10248047 3.33998047 4.20703125 4.70703125 C3.62825241 13.91289095 -8.41534841 23.1873978 -15 29 C-26.16638889 38.37694461 -38.78509508 46.31804654 -53 50 C-53 49.34 -53 48.68 -53 48 C-51.515 47.505 -51.515 47.505 -50 47 C-49.67 46.34 -49.34 45.68 -49 45 C-46.93359375 44.5859375 -46.93359375 44.5859375 -44.4375 44.375 C-43.61121094 44.30023438 -42.78492188 44.22546875 -41.93359375 44.1484375 C-41.29550781 44.09945312 -40.65742188 44.05046875 -40 44 C-39.67 43.01 -39.34 42.02 -39 41 C-38.21625 40.690625 -37.4325 40.38125 -36.625 40.0625 C-33.89695993 39.22125338 -33.89695993 39.22125338 -32.5 37 C-30.59256473 34.45675298 -28.98604033 33.99534678 -26 33 C-25.071875 32.62875 -24.14375 32.2575 -23.1875 31.875 C-22.465625 31.58625 -21.74375 31.2975 -21 31 C-21.495 28.525 -21.495 28.525 -22 26 C-21.01 25.67 -20.02 25.34 -19 25 C-18.67 24.34 -18.34 23.68 -18 23 C-17.278125 23.103125 -16.55625 23.20625 -15.8125 23.3125 C-11.73708638 22.85967626 -10.54156419 21.1435136 -8 18 C-7.505 16.783125 -7.01 15.56625 -6.5 14.3125 C-5 11 -5 11 -2.375 9.75 C-1.59125 9.5025 -0.8075 9.255 0 9 C0.33 8.01 0.66 7.02 1 6 C1.33 5.67 1.66 5.34 2 5 C1.34 4.67 0.68 4.34 0 4 C0 2.68 0 1.36 0 0 Z " fill="#842CE8" transform="translate(385,361)"/>
<path d="M0 0 C0.33 0 0.66 0 1 0 C1.84194069 43.27575124 1.84194069 43.27575124 -3 59 C-3.20898926 59.72155273 -3.41797852 60.44310547 -3.63330078 61.18652344 C-7.18217562 73.2287729 -12.47770619 87.44717049 -22 96 C-22 94.35 -22 92.7 -22 91 C-21.01 91 -20.02 91 -19 91 C-18.896875 90.319375 -18.79375 89.63875 -18.6875 88.9375 C-17.85274981 85.37084011 -16.50527246 82.33777806 -15 79 C-14.01 79 -13.02 79 -12 79 C-12.061875 78.319375 -12.12375 77.63875 -12.1875 76.9375 C-11.94806251 73.18631267 -10.51768313 70.41478705 -9 67 C-9 66.01 -9 65.02 -9 64 C-8.01 63.505 -8.01 63.505 -7 63 C-6.39569708 60.68687878 -5.88951459 58.34763596 -5.4375 56 C-4.09386733 49.09386733 -4.09386733 49.09386733 -3 48 C-3.03219526 46.16487042 -3.06794829 44.32918808 -3.16015625 42.49609375 C-3 40 -3 40 -2.01586914 36.33032227 C-0.97993181 32.26933173 -0.68754225 28.41841308 -0.5859375 24.21875 C-0.56657135 23.51979614 -0.5472052 22.82084229 -0.5272522 22.10070801 C-0.4681785 19.90059036 -0.42136527 17.70041828 -0.375 15.5 C-0.33675343 13.99477071 -0.29769799 12.48956175 -0.2578125 10.984375 C-0.16253875 7.3231043 -0.07824644 3.66167878 0 0 Z " fill="#7D1ACD" transform="translate(411,272)"/>
<path d="M0 0 C0.66 0 1.32 0 2 0 C2.9765625 1.72526042 3.953125 3.45052083 4.9296875 5.17578125 C5.89428581 6.81982289 6.94267059 8.41400588 8 10 C8.5625 11.9375 8.5625 11.9375 9 14 C9.185625 14.7425 9.37125 15.485 9.5625 16.25 C9.706875 16.8275 9.85125 17.405 10 18 C10.66 18 11.32 18 12 18 C12.33 18.99 12.66 19.98 13 21 C13.7425 21.226875 14.485 21.45375 15.25 21.6875 C18.92199392 23.44004255 19.9239944 25.80296931 21.7890625 29.3203125 C22.18867187 29.87460937 22.58828125 30.42890625 23 31 C23.99 31 24.98 31 26 31 C26 32.65 26 34.3 26 36 C20.27692574 34.81926866 17.97127579 33.55991073 14.5 28.625 C13.36691406 27.01431641 13.36691406 27.01431641 12.2109375 25.37109375 C0 7.00155026 0 7.00155026 0 0 Z " fill="#3871DB" transform="translate(21,342)"/>
<path d="M0 0 C0.33 0 0.66 0 1 0 C1.59012228 4.57344766 2.0165506 8.94363981 1.9453125 13.5546875 C1.91651725 19.5230575 2.60840564 25.33837814 3.375 31.25 C3.50132813 32.29929687 3.62765625 33.34859375 3.7578125 34.4296875 C4.40075928 39.50896703 5.12092542 44.20301287 7 49 C7.52942907 50.58828721 8.04466442 52.1850383 8.4375 53.8125 C9.15214102 56.59165951 10.07437244 59.28482583 11 62 C9.515 62.495 9.515 62.495 8 63 C0.75025818 41.70925622 -0.42702965 22.28218818 0 0 Z " fill="#316DD6" transform="translate(12,280)"/>
<path d="M0 0 C1.32 0.66 2.64 1.32 4 2 C3.72600928 5.11927902 3.02316132 5.97976712 0.62109375 8.078125 C-5.57021136 12.30188652 -11.80240288 16.12368556 -18.5 19.5 C-19.16974854 19.83805664 -19.83949707 20.17611328 -20.52954102 20.52441406 C-23.98995715 22.20953173 -27.17829994 23.47084153 -31 24 C-31 23.34 -31 22.68 -31 22 C-30.01 21.67 -29.02 21.34 -28 21 C-27.67 20.34 -27.34 19.68 -27 19 C-24.93359375 18.5859375 -24.93359375 18.5859375 -22.4375 18.375 C-21.61121094 18.30023438 -20.78492188 18.22546875 -19.93359375 18.1484375 C-18.97646484 18.07496094 -18.97646484 18.07496094 -18 18 C-17.67 17.01 -17.34 16.02 -17 15 C-16.21625 14.690625 -15.4325 14.38125 -14.625 14.0625 C-11.89695993 13.22125338 -11.89695993 13.22125338 -10.5 11 C-8.59256473 8.45675298 -6.98604033 7.99534678 -4 7 C-3.071875 6.62875 -2.14375 6.2575 -1.1875 5.875 C-0.465625 5.58625 0.25625 5.2975 1 5 C0.67 3.35 0.34 1.7 0 0 Z " fill="#7E36E2" transform="translate(363,387)"/>
<path d="M0 0 C1.35677828 3.75162853 0.62332344 6.43574333 -0.3125 10.25 C-1.84754925 16.9509456 -2.79203754 23.57927667 -3.5703125 30.40625 C-3.84270486 32.68444061 -4.16503394 34.95766173 -4.5546875 37.21875 C-5.10539912 40.18883648 -5.10539912 40.18883648 -5 44 C-5.66 44 -6.32 44 -7 44 C-7.72397196 28.82340252 -4.98001576 14.30806559 0 0 Z " fill="#3168CB" transform="translate(19,95)"/>
<path d="M0 0 C9.09486361 4.44637777 16.66660289 11.43159152 22 20 C20.125 19.75 20.125 19.75 18 19 C17.33333333 17.66666667 16.66666667 16.33333333 16 15 C14.05714832 14.01382865 14.05714832 14.01382865 12 14 C11.34 14.66 10.68 15.32 10 16 C8.3372974 13.32521756 7.00016187 11.0004856 6 8 C5.67 7.34 5.34 6.68 5 6 C3.35 6.33 1.7 6.66 0 7 C0 4.69 0 2.38 0 0 Z " fill="#812DDD" transform="translate(361,40)"/>
<path d="M0 0 C1.4606285 2.64738916 2 3.89448334 2 7 C0.42578125 8.4296875 0.42578125 8.4296875 -1.6875 9.875 C-5.13851185 12.32783558 -8.04178797 14.95961541 -11 18 C-12.31175986 19.02813611 -13.6369893 20.04084432 -15 21 C-13.63176013 17.06367913 -11.83593682 14.26796943 -9.1875 11.0625 C-8.47980469 10.20011719 -7.77210937 9.33773437 -7.04296875 8.44921875 C-6.03169922 7.23685547 -6.03169922 7.23685547 -5 6 C-4.45988281 5.34644531 -3.91976562 4.69289063 -3.36328125 4.01953125 C-2.24833506 2.67456751 -1.12530947 1.336305 0 0 Z " fill="#4379FC" transform="translate(45,54)"/>
<path d="M0 0 C0 0.66 0 1.32 0 2 C0.721875 2.0825 1.44375 2.165 2.1875 2.25 C5.55221031 3.14725608 7.35673807 4.78537514 10 7 C10.66 7 11.32 7 12 7 C12 8.65 12 10.3 12 12 C13.32 12 14.64 12 16 12 C16 13.65 16 15.3 16 17 C12.2640173 13.87397366 8.81411662 10.81372683 5.5625 7.1875 C3.08285821 4.66876475 1.31934947 3.46596908 -2.1875 2.875 C-6.14724522 3.00482771 -7.23350427 3.33990795 -10 6 C-10.66 6 -11.32 6 -12 6 C-11.8125 4.125 -11.8125 4.125 -11 2 C-7.3382625 -0.09242143 -4.15467129 -0.19324053 0 0 Z " fill="#8373EF" transform="translate(180,191)"/>
<path d="M0 0 C0.66 0.33 1.32 0.66 2 1 C1.57847656 1.48210938 1.15695313 1.96421875 0.72265625 2.4609375 C0.17480469 3.09257813 -0.37304688 3.72421875 -0.9375 4.375 C-1.75541016 5.31472656 -1.75541016 5.31472656 -2.58984375 6.2734375 C-4.06958624 7.95632334 -4.06958624 7.95632334 -5 10 C-5.66 10 -6.32 10 -7 10 C-7.33 10.66 -7.66 11.32 -8 12 C-8.66 12 -9.32 12 -10 12 C-10.556875 12.61875 -11.11375 13.2375 -11.6875 13.875 C-14.58753997 16.53990159 -17.20771415 17.12485711 -21 18 C-17.50923078 13.52867763 -13.92501733 10.11576625 -9.375 6.75 C-8.80265625 6.316875 -8.2303125 5.88375 -7.640625 5.4375 C-5.13620207 3.55044644 -2.60965856 1.73977237 0 0 Z " fill="#4668DB" transform="translate(67,36)"/>
<path d="M0 0 C3 3 3 3 4 5 C4.58265625 5.08378906 5.1653125 5.16757812 5.765625 5.25390625 C9.19023326 6.39743803 10.73128002 9.10668908 12.75 11.9375 C13.16121094 12.48857422 13.57242187 13.03964844 13.99609375 13.60742188 C17 17.71409105 17 17.71409105 17 20 C16.34 20 15.68 20 15 20 C14.34 19.34 13.68 18.68 13 18 C12.01 17.67 11.02 17.34 10 17 C9.71125 16.030625 9.4225 15.06125 9.125 14.0625 C8.31277543 10.82934053 8.31277543 10.82934053 5.5625 9.625 C2.95384291 8.88152191 2.95384291 8.88152191 0 9 C0 6.03 0 3.06 0 0 Z " fill="#8225D5" transform="translate(376,54)"/>
<path d="M0 0 C19.14 0 38.28 0 58 0 C58 0.33 58 0.66 58 1 C57.31761765 1.01030746 56.63523529 1.02061493 55.93217468 1.03123474 C48.84343768 1.13923821 41.75482937 1.25384131 34.66625977 1.37231445 C32.01915168 1.41568304 29.37201528 1.45735668 26.72485352 1.49731445 C22.924555 1.55497023 19.12439932 1.61867844 15.32421875 1.68359375 C14.13664474 1.70030624 12.94907074 1.71701874 11.72550964 1.73423767 C10.62459488 1.75418289 9.52368011 1.77412811 8.3894043 1.79467773 C6.93379341 1.81799416 6.93379341 1.81799416 5.44877625 1.84178162 C2.86204325 1.90465129 2.86204325 1.90465129 0 3 C0 2.01 0 1.02 0 0 Z " fill="#885EE4" transform="translate(246,157)"/>
<path d="M0 0 C0.33 0.66 0.66 1.32 1 2 C0.67 2.66 0.34 3.32 0 4 C-0.66 4 -1.32 4 -2 4 C-2.66 5.65 -3.32 7.3 -4 9 C-4.66 9 -5.32 9 -6 9 C-6.26167969 9.5878125 -6.52335938 10.175625 -6.79296875 10.78125 C-9.73327315 16.1860814 -15.16419365 20.33651034 -20 24 C-20.66 23.67 -21.32 23.34 -22 23 C-18.30734335 18.45619909 -14.54862345 14.67761045 -10 11 C-7.28367651 8.40714576 -5.08430146 6.12645219 -3 3 C-2.34 3 -1.68 3 -1 3 C-0.67 2.01 -0.34 1.02 0 0 Z " fill="#7271EB" transform="translate(161,232)"/>
<path d="M0 0 C4.30688522 3.47863806 8.06422823 7.08194139 11.6015625 11.33984375 C14.47931523 14.75617031 17.63398402 17.73126319 21.125 20.5 C23.84576953 22.86588655 25.36591421 24.82261096 27 28 C25.68 27.34 24.36 26.68 23 26 C23 25.34 23 24.68 23 24 C22.4225 23.74992187 21.845 23.49984375 21.25 23.2421875 C18.69783995 21.83318248 17.02276938 20.21888237 15 18.125 C14.34 17.44695312 13.68 16.76890625 13 16.0703125 C12.34 15.38710937 11.68 14.70390625 11 14 C10.2575 13.29617187 9.515 12.59234375 8.75 11.8671875 C7 10 7 10 7 8 C6.401875 7.7525 5.80375 7.505 5.1875 7.25 C2.68373081 5.81927475 1.51927612 4.4308418 0 2 C0 1.34 0 0.68 0 0 Z " fill="#7F70E8" transform="translate(185,225)"/>
<path d="M0 0 C0.66 0 1.32 0 2 0 C1.67 1.65 1.34 3.3 1 5 C0.34 5 -0.32 5 -1 5 C0.73122465 7.58119071 0.73122465 7.58119071 3 10 C4.32 10 5.64 10 7 10 C7.33 10.99 7.66 11.98 8 13 C7.01 13.99 6.02 14.98 5 16 C1.37 12.37 -2.26 8.74 -6 5 C-5.67 4.34 -5.34 3.68 -5 3 C-3.66666667 2.66666667 -2.33333333 2.33333333 -1 2 C-0.67 1.34 -0.34 0.68 0 0 Z " fill="#8269F2" transform="translate(214,216)"/>
<path d="M0 0 C1.4540625 0.0309375 1.4540625 0.0309375 2.9375 0.0625 C2.9375 1.3825 2.9375 2.7025 2.9375 4.0625 C4.25087396 5.0885734 5.58414105 6.08977325 6.9375 7.0625 C6.9375 8.0525 6.9375 9.0425 6.9375 10.0625 C4.44388429 8.85868552 2.25606917 7.60821278 -0.0625 6.0625 C-3.03092658 5.60334493 -3.03092658 5.60334493 -6.25 5.4375 C-7.33667969 5.36273438 -8.42335938 5.28796875 -9.54296875 5.2109375 C-10.37441406 5.16195312 -11.20585937 5.11296875 -12.0625 5.0625 C-11.7325 4.0725 -11.4025 3.0825 -11.0625 2.0625 C-10.7325 2.7225 -10.4025 3.3825 -10.0625 4.0625 C-7.7525 4.0625 -5.4425 4.0625 -3.0625 4.0625 C-3.3925 3.0725 -3.7225 2.0825 -4.0625 1.0625 C-3.0625 0.0625 -3.0625 0.0625 0 0 Z " fill="#884CE7" transform="translate(316.0625,152.9375)"/>
<path d="M0 0 C3 1 3 1 5.0078125 4.45703125 C5.72387046 5.90378777 6.42919404 7.35589521 7.125 8.8125 C7.66447266 9.90014648 7.66447266 9.90014648 8.21484375 11.00976562 C9.8355508 14.32705553 11.19550344 17.3817742 12 21 C9 20 9 20 7.4375 17.0625 C6.7259375 15.5465625 6.7259375 15.5465625 6 14 C5.34 13.34 4.68 12.68 4 12 C2.72677271 9.67823258 1.84137584 7.52412752 1 5 C0.67 5 0.34 5 0 5 C0 3.35 0 1.7 0 0 Z " fill="#8821DD" transform="translate(392,74)"/>
<path d="M0 0 C1.65549531 0.38499891 3.3222433 0.72793135 5 1 C5 1.66 5 2.32 5 3 C5.680625 2.95875 6.36125 2.9175 7.0625 2.875 C12.43986649 3.10382411 16.93039376 4.41874651 21 8 C15.08694476 7.68878657 9.80327081 6.47691519 4.1875 4.625 C3.54159912 4.41593018 2.89569824 4.20686035 2.23022461 3.99145508 C-1.31445546 2.78158316 -4.15571597 1.45023964 -7 -1 C-3.51418144 -2.2020064 -3.32007656 -2.21338437 0 0 Z " fill="#4E61D1" transform="translate(90,408)"/>
<path d="M0 0 C-4.62 4.62 -9.24 9.24 -14 14 C-14 10.0080306 -12.88042897 7.50148842 -11 4 C-8.3125 3.0625 -8.3125 3.0625 -6 3 C-6.33 2.01 -6.66 1.02 -7 0 C-3.98968256 -0.93423645 -3.13349732 -1.04449911 0 0 Z " fill="#6C6BEC" transform="translate(168,198)"/>
<path d="M0 0 C0.33 0.99 0.66 1.98 1 3 C0.21625 3.2475 -0.5675 3.495 -1.375 3.75 C-4.45455085 5.21645279 -4.67019235 5.98576932 -6 9 C-7.33333333 10.33333333 -8.66666667 11.66666667 -10 13 C-10.33 13.99 -10.66 14.98 -11 16 C-11.99 16.33 -12.98 16.66 -14 17 C-14 17.99 -14 18.98 -14 20 C-14.639375 20.12375 -15.27875 20.2475 -15.9375 20.375 C-16.618125 20.58125 -17.29875 20.7875 -18 21 C-18.33 21.66 -18.66 22.32 -19 23 C-19.99 22.67 -20.98 22.34 -22 22 C-14.66666667 14.66666667 -7.33333333 7.33333333 0 0 Z " fill="#815CE8" transform="translate(270,224)"/>
<path d="M0 0 C0.99 0 1.98 0 3 0 C4.45611487 1.98883983 5.54555394 4.08409958 6.71875 6.25 C7.1415625 6.8275 7.564375 7.405 8 8 C8.99 8 9.98 8 11 8 C11 9.65 11 11.3 11 13 C4.6162465 11.55462185 4.6162465 11.55462185 2.125 9.3125 C0.6374713 6.25480212 0.32346577 3.36404401 0 0 Z " fill="#3C72EC" transform="translate(36,365)"/>
<path d="M0 0 C0 0.66 0 1.32 0 2 C-1.32 2.33 -2.64 2.66 -4 3 C-4 3.66 -4 4.32 -4 5 C-4.66 5 -5.32 5 -6 5 C-5.67 5.99 -5.34 6.98 -5 8 C-6.65 9.32 -8.3 10.64 -10 12 C-11.66666667 10.33333333 -13.33333333 8.66666667 -15 7 C-12.87767021 5.82823482 -10.75242209 4.66245215 -8.625 3.5 C-7.72007813 2.99919922 -7.72007813 2.99919922 -6.796875 2.48828125 C-2.2265625 0 -2.2265625 0 0 0 Z " fill="#4C68DD" transform="translate(84,28)"/>
<path d="M0 0 C0.99 0.33 1.98 0.66 3 1 C5.87438548 1.15413876 8.72898986 1.25747285 11.60546875 1.31640625 C12.86427605 1.3475779 12.86427605 1.3475779 14.14851379 1.37937927 C16.82809294 1.44474018 19.50776969 1.50369714 22.1875 1.5625 C24.00456737 1.60569802 25.82162488 1.64931273 27.63867188 1.69335938 C32.09234799 1.8004078 36.54612226 1.90171319 41 2 C39.68 3.32 38.36 4.64 37 6 C37 5.01 37 4.02 37 3 C35.98993896 3.16749756 34.97987793 3.33499512 33.93920898 3.50756836 C30.18262277 3.97717074 26.74958692 4.02998348 22.97265625 3.87890625 C21.04389648 3.80639648 21.04389648 3.80639648 19.07617188 3.73242188 C17.73827544 3.67591872 16.40038487 3.6192764 15.0625 3.5625 C13.69728806 3.50918787 12.33205364 3.45644834 10.96679688 3.40429688 C7.64426693 3.2751526 4.32207839 3.1402083 1 3 C0.67 2.01 0.34 1.02 0 0 Z " fill="#8155DD" transform="translate(246,176)"/>
<path d="M0 0 C-2.51712189 1.29935464 -5.03829087 2.58954372 -7.5625 3.875 C-8.26697266 4.23980469 -8.97144531 4.60460937 -9.69726562 4.98046875 C-14.07465515 7.19942197 -18.23641861 8.81066956 -23 10 C-23 9.34 -23 8.68 -23 8 C-22.01 7.67 -21.02 7.34 -20 7 C-19.67 6.34 -19.34 5.68 -19 5 C-16.93359375 4.5859375 -16.93359375 4.5859375 -14.4375 4.375 C-13.61121094 4.30023438 -12.78492188 4.22546875 -11.93359375 4.1484375 C-10.97646484 4.07496094 -10.97646484 4.07496094 -10 4 C-9.67 3.01 -9.34 2.02 -9 1 C-5.53568007 -0.87260537 -3.70820267 -1.10692617 0 0 Z " fill="#6D38CB" transform="translate(355,401)"/>
<path d="M0 0 C-0.99 1.485 -0.99 1.485 -2 3 C-4.9765625 3.51171875 -4.9765625 3.51171875 -8.625 3.6875 C-10.50445312 3.78417969 -10.50445312 3.78417969 -12.421875 3.8828125 C-16.28958122 4.0094841 -20.13126895 4.07737462 -24 4 C-16.91697905 -0.01371187 -7.9787809 -0.30687619 0 0 Z " fill="#4E5BC5" transform="translate(126,18)"/>
<path d="M0 0 C1.65 0 3.3 0 5 0 C5 0.66 5 1.32 5 2 C7.70792192 3.11502667 10.40807793 4.13602598 13.1875 5.0625 C16 6 16 6 18 7 C17.67 7.66 17.34 8.32 17 9 C18.32 9.33 19.64 9.66 21 10 C19.44140625 10.734375 19.44140625 10.734375 17 11 C14.50031626 9.8449536 12.27659542 8.66851685 9.9375 7.25 C9.31294922 6.8890625 8.68839844 6.528125 8.04492188 6.15625 C5.02814653 4.37902483 2.30098173 2.66340742 0 0 Z " fill="#4A66D6" transform="translate(63,396)"/>
<path d="M0 0 C0.33 0.99 0.66 1.98 1 3 C0.01 3.33 -0.98 3.66 -2 4 C-2.268125 4.556875 -2.53625 5.11375 -2.8125 5.6875 C-4.55924082 9.0890479 -6.93679002 11.70820965 -10 14 C-12.875 14.375 -12.875 14.375 -15 14 C-11.50875758 10.40607398 -7.86097039 7.20378394 -4 4 C-2.64900897 2.68456137 -1.30794331 1.35824882 0 0 Z " fill="#7379EF" transform="translate(131,263)"/>
<path d="M0 0 C0.33 0.66 0.66 1.32 1 2 C-0.37708794 5.80724312 -1.30653734 7.60804285 -4.875 9.625 C-5.90625 10.07875 -6.9375 10.5325 -8 11 C-9.69859667 12.29241051 -11.37609523 13.61490475 -13 15 C-13.66 14.67 -14.32 14.34 -15 14 C-14.08476562 13.15695312 -13.16953125 12.31390625 -12.2265625 11.4453125 C-11.02602139 10.33856366 -9.82550167 9.23179162 -8.625 8.125 C-8.02171875 7.56941406 -7.4184375 7.01382813 -6.796875 6.44140625 C-6.21679688 5.90644531 -5.63671875 5.37148437 -5.0390625 4.8203125 C-4.50490723 4.32805176 -3.97075195 3.83579102 -3.42041016 3.32861328 C-2.25855182 2.24184238 -1.12494128 1.12494128 0 0 Z " fill="#7F5FEA" transform="translate(247,247)"/>
<path d="M0 0 C4.77609498 1.64178265 8.79382904 4.26546702 13 7 C8.47907032 8.45606519 5.48351204 7.27032841 1 6 C0.67 4.02 0.34 2.04 0 0 Z " fill="#7E33DF" transform="translate(348,32)"/>
<path d="M0 0 C1.16781006 0.00523682 2.33562012 0.01047363 3.53881836 0.01586914 C4.79887695 0.0190918 6.05893555 0.02231445 7.35717773 0.02563477 C8.6976732 0.03399136 10.03816799 0.04245632 11.37866211 0.05102539 C12.72306153 0.05603879 14.06746271 0.06060197 15.41186523 0.06469727 C18.71334151 0.07653051 22.01473014 0.09301568 25.31616211 0.11352539 C25.31616211 0.44352539 25.31616211 0.77352539 25.31616211 1.11352539 C24.74696045 1.13334473 24.17775879 1.15316406 23.59130859 1.17358398 C20.97834499 1.26964297 18.36609408 1.37898946 15.75366211 1.48852539 C14.8584082 1.51946289 13.9631543 1.55040039 13.04077148 1.58227539 C7.80890466 1.81224756 3.28271335 2.43756983 -1.68383789 4.11352539 C-2.34383789 3.12352539 -3.00383789 2.13352539 -3.68383789 1.11352539 C-2.68383789 0.11352539 -2.68383789 0.11352539 0 0 Z " fill="#6268E3" transform="translate(128.683837890625,17.886474609375)"/>
<path d="M0 0 C0.66 0.33 1.32 0.66 2 1 C-2.62 5.62 -7.24 10.24 -12 15 C-12.33 14.01 -12.66 13.02 -13 12 C-11 9 -11 9 -8 8 C-7.67 7.34 -7.34 6.68 -7 6 C-6.34 6 -5.68 6 -5 6 C-4.731875 5.195625 -4.46375 4.39125 -4.1875 3.5625 C-3.795625 2.716875 -3.40375 1.87125 -3 1 C-2.01 0.67 -1.02 0.34 0 0 Z " fill="#7C5EEA" transform="translate(246,217)"/>
<path d="M0 0 C0.66 0 1.32 0 2 0 C1.68863537 6.07161025 -1.35374467 10.33859404 -5 15 C-5.33 15 -5.66 15 -6 15 C-6 13.35 -6 11.7 -6 10 C-5.01 10 -4.02 10 -3 10 C-2.87625 9.278125 -2.7525 8.55625 -2.625 7.8125 C-2.0095069 5.04278106 -1.11555626 2.6029646 0 0 Z " fill="#7B26D5" transform="translate(395,353)"/>
<path d="M0 0 C1.32 0.33 2.64 0.66 4 1 C4 1.66 4 2.32 4 3 C4.99 3 5.98 3 7 3 C7.33 3.99 7.66 4.98 8 6 C10.49759982 7.69882448 10.49759982 7.69882448 13 9 C12.67 10.32 12.34 11.64 12 13 C9.99698146 11.0238076 7.99750133 9.04425526 6 7.0625 C5.42765625 6.49853516 4.8553125 5.93457031 4.265625 5.35351562 C2.82474495 3.92121224 1.41012857 2.46258871 0 1 C0 0.67 0 0.34 0 0 Z " fill="#4770E0" transform="translate(41,376)"/>
<path d="M0 0 C0.33 1.32 0.66 2.64 1 4 C0.38125 4.226875 -0.2375 4.45375 -0.875 4.6875 C-3.61410209 6.37929835 -4.05024472 7.99244161 -5 11 C-7 8 -7 8 -6.8125 6 C-5.8766791 3.69644085 -4.92816609 2.55736492 -3 1 C-2.01 0.67 -1.02 0.34 0 0 Z " fill="#8E44F0" transform="translate(300,196)"/>
<path d="M0 0 C3 3 3 3 4 5 C4.99 5.33 5.98 5.66 7 6 C6.67 7.32 6.34 8.64 6 10 C5.38125 9.835 4.7625 9.67 4.125 9.5 C2.03936614 8.92365356 2.03936614 8.92365356 0 9 C0 6.03 0 3.06 0 0 Z " fill="#9328F8" transform="translate(376,54)"/>
<path d="M0 0 C-0.33 0.99 -0.66 1.98 -1 3 C-3.58203125 3.984375 -3.58203125 3.984375 -6.8125 4.75 C-7.87082031 5.01296875 -8.92914063 5.2759375 -10.01953125 5.546875 C-12.81733936 5.97222984 -14.37531844 5.94056385 -17 5 C-14.73117913 4.16080602 -12.46022973 3.32848276 -10.1875 2.5 C-9.54490234 2.26152344 -8.90230469 2.02304687 -8.24023438 1.77734375 C-5.35066261 0.72931254 -3.09923939 0 0 0 Z " fill="#4C5DC1" transform="translate(101,22)"/>
<path d="M0 0 C0.33 0.99 0.66 1.98 1 3 C0.54625 3.4125 0.0925 3.825 -0.375 4.25 C-2.0986372 5.90721867 -2.0986372 5.90721867 -2.875 8.0625 C-4.41329016 10.71177751 -6.15111923 11.10035344 -9 12 C-6.53974941 7.48954059 -3.39717963 3.81495577 0 0 Z " fill="#3D62C3" transform="translate(45,54)"/>
<path d="M0 0 C2.97 0 5.94 0 9 0 C5.89724263 2.06850491 3.5900783 2.78558082 0 3.6875 C-1.051875 3.95949219 -2.10375 4.23148437 -3.1875 4.51171875 C-6 5 -6 5 -9 4 C-6.03 3.34 -3.06 2.68 0 2 C0 1.34 0 0.68 0 0 Z " fill="#6638BC" transform="translate(323,411)"/>
<path d="M0 0 C0.99 0.33 1.98 0.66 3 1 C3 2.32 3 3.64 3 5 C1.1875 5.6875 1.1875 5.6875 -1 6 C-2.75 4.5625 -2.75 4.5625 -4 3 C-2.68 2.67 -1.36 2.34 0 2 C0 1.34 0 0.68 0 0 Z M4 1 C6 2 6 2 6 2 Z " fill="#4674FC" transform="translate(57,384)"/>
<path d="M0 0 C-1.1858237 3.37503669 -2.27573689 5.64722731 -5 8 C-5.99 6.68 -6.98 5.36 -8 4 C-4.5 0 -4.5 0 0 0 Z " fill="#7E66F8" transform="translate(208,208)"/>
<path d="M0 0 C5.23880078 0.55145271 9.97350697 1.42922093 15 3 C15 3.33 15 3.66 15 4 C8.07 3.505 8.07 3.505 1 3 C0.67 2.01 0.34 1.02 0 0 Z " fill="#6832BF" transform="translate(314,20)"/>
<path d="M0 0 C0.66 0 1.32 0 2 0 C1.67 3.63 1.34 7.26 1 11 C0.01 11.33 -0.98 11.66 -2 12 C-1.85962479 10.18706911 -1.71255111 8.3746557 -1.5625 6.5625 C-1.48128906 5.55316406 -1.40007813 4.54382813 -1.31640625 3.50390625 C-1 1 -1 1 0 0 Z " fill="#367AEE" transform="translate(21,92)"/>
<path d="M0 0 C2.42348595 0.08655307 3.68385658 0.6766715 5.375 2.40625 C6.62094897 3.90705217 7.81389216 5.45147031 9 7 C6.69 6.67 4.38 6.34 2 6 C2 5.01 2 4.02 2 3 C1.01 2.34 0.02 1.68 -1 1 C-0.67 0.67 -0.34 0.34 0 0 Z " fill="#7F75EA" transform="translate(176,218)"/>
<path d="M0 0 C0 0.66 0 1.32 0 2 C-1.2375 2.28875 -2.475 2.5775 -3.75 2.875 C-6.72448742 3.61334794 -9.333856 4.44474933 -12 6 C-11.8125 4.125 -11.8125 4.125 -11 2 C-7.3382625 -0.09242143 -4.15467129 -0.19324053 0 0 Z " fill="#766DE8" transform="translate(180,191)"/>
<path d="M0 0 C1.4540625 0.0309375 1.4540625 0.0309375 2.9375 0.0625 C2.9375 1.3825 2.9375 2.7025 2.9375 4.0625 C0.9575 4.0625 -1.0225 4.0625 -3.0625 4.0625 C-3.3925 3.0725 -3.7225 2.0825 -4.0625 1.0625 C-3.0625 0.0625 -3.0625 0.0625 0 0 Z " fill="#8A3CFB" transform="translate(316.0625,152.9375)"/>
<path d="M0 0 C0.598125 0.33 1.19625 0.66 1.8125 1 C4.05386471 2.20787988 4.05386471 2.20787988 7 2 C7 3.65 7 5.3 7 7 C5.02 6.34 3.04 5.68 1 5 C0.67 3.35 0.34 1.7 0 0 Z " fill="#3C77FC" transform="translate(40,371)"/>
<path d="M0 0 C0.33 0.66 0.66 1.32 1 2 C0.67 2.66 0.34 3.32 0 4 C-0.66 4 -1.32 4 -2 4 C-2.66 5.65 -3.32 7.3 -4 9 C-4.66 9 -5.32 9 -6 9 C-6.33 9.99 -6.66 10.98 -7 12 C-7.66 11.01 -8.32 10.02 -9 9 C-8.195625 8.38125 -7.39125 7.7625 -6.5625 7.125 C-3.96125481 5.25835959 -3.96125481 5.25835959 -3 3 C-2.34 3 -1.68 3 -1 3 C-0.67 2.01 -0.34 1.02 0 0 Z " fill="#7D7AEE" transform="translate(161,232)"/>
<path d="M0 0 C0.66 0 1.32 0 2 0 C2.27748242 1.41154099 2.52093516 2.82979799 2.75 4.25 C2.88921875 5.03890625 3.0284375 5.8278125 3.171875 6.640625 C3 9 3 9 -1 13 C-0.67 8.71 -0.34 4.42 0 0 Z " fill="#9619F3" transform="translate(402,95)"/>
<path d="M0 0 C0.66 0 1.32 0 2 0 C1.39301257 4.12751449 -0.03810791 7.3321148 -2 11 C-4 8 -4 8 -4 6 C-3.01 6 -2.02 6 -1 6 C-1.020625 5.195625 -1.04125 4.39125 -1.0625 3.5625 C-1 1 -1 1 0 0 Z " fill="#6F1FBC" transform="translate(400,345)"/>
<path d="M0 0 C0.66 0 1.32 0 2 0 C2.66 1.65 3.32 3.3 4 5 C1.03 5.66 -1.94 6.32 -5 7 C-4.67 6.01 -4.34 5.02 -4 4 C-2.35 4 -0.7 4 1 4 C0.67 2.68 0.34 1.36 0 0 Z " fill="#8441F6" transform="translate(319,408)"/>
<path d="M0 0 C4.55015893 1.51671964 6.50057264 5.16891053 9 9 C7.06640625 8.625 7.06640625 8.625 5 8 C4.30062468 6.68352881 3.63270867 5.34977849 3 4 C2.01 3.67 1.02 3.34 0 3 C0 2.01 0 1.02 0 0 Z " fill="#7224BA" transform="translate(374,51)"/>
<path d="M0 0 C1.65 0 3.3 0 5 0 C5 0.66 5 1.32 5 2 C0.545 3.485 0.545 3.485 -4 5 C-4 4.34 -4 3.68 -4 3 C-3.01 2.67 -2.02 2.34 -1 2 C-0.67 1.34 -0.34 0.68 0 0 Z " fill="#773AD5" transform="translate(336,406)"/>
<path d="M0 0 C1.65 0.33 3.3 0.66 5 1 C3.35 2.98 1.7 4.96 0 7 C-1.04449911 3.86650268 -0.93423645 3.01031744 0 0 Z " fill="#8057EB" transform="translate(266,193)"/>
<path d="M0 0 C2.51699845 2.51699845 3.10964078 4.57554146 4 8 C3.625 10.375 3.625 10.375 3 12 C0.50494038 9.50494038 0.64051624 8.32671112 0.375 4.875 C0.30023438 3.96492188 0.22546875 3.05484375 0.1484375 2.1171875 C0.09945313 1.41851562 0.05046875 0.71984375 0 0 Z " fill="#761CB9" transform="translate(404,96)"/>
<path d="M0 0 C2.22825644 2.22825644 2.69239369 3.65761628 3.625 6.625 C4.01558594 7.85089844 4.01558594 7.85089844 4.4140625 9.1015625 C4.60742188 9.72804688 4.80078125 10.35453125 5 11 C2 10 2 10 0.8125 7.75 C0.00061706 5.00208853 -0.16260121 2.84552111 0 0 Z " fill="#7C1EC3" transform="translate(399,84)"/>
<path d="M0 0 C1.98 0 3.96 0 6 0 C4.02 2.31 2.04 4.62 0 7 C-0.33 5.68 -0.66 4.36 -1 3 C-0.34 2.67 0.32 2.34 1 2 C0.67 1.34 0.34 0.68 0 0 Z " fill="#8258EA" transform="translate(274,185)"/>
<path d="M0 0 C0.680625 0.33 1.36125 0.66 2.0625 1 C5.50840238 2.17307315 8.38397422 2.14180493 12 2 C11.67 2.66 11.34 3.32 11 4 C8.03 4 5.06 4 2 4 C1.34 2.68 0.68 1.36 0 0 Z " fill="#816BE5" transform="translate(220,260)"/>
<path d="M0 0 C0 3 0 3 -1.3125 4.60546875 C-1.869375 5.12753906 -2.42625 5.64960938 -3 6.1875 C-3.556875 6.71730469 -4.11375 7.24710938 -4.6875 7.79296875 C-5.120625 8.19128906 -5.55375 8.58960938 -6 9 C-6.66 8.67 -7.32 8.34 -8 8 C-5.33333333 5.33333333 -2.66666667 2.66666667 0 0 Z " fill="#7B72E7" transform="translate(174,220)"/>
<path d="M0 0 C2.64 0 5.28 0 8 0 C6.35 1.65 4.7 3.3 3 5 C2.87625 4.360625 2.7525 3.72125 2.625 3.0625 C2.315625 2.0415625 2.315625 2.0415625 2 1 C1.34 0.67 0.68 0.34 0 0 Z " fill="#7E57F0" transform="translate(248,209)"/>
<path d="M0 0 C0 1.66666667 0 3.33333333 0 5 C-2.31 5.66 -4.62 6.32 -7 7 C-2.25 1.125 -2.25 1.125 0 0 Z " fill="#3B5BB8" transform="translate(53,47)"/>
<path d="M0 0 C5.75 1.75 5.75 1.75 8 4 C6.02 4.99 6.02 4.99 4 6 C4 5.01 4 4.02 4 3 C2.68 2.67 1.36 2.34 0 2 C0 1.34 0 0.68 0 0 Z " fill="#6E2FCA" transform="translate(340,28)"/>
<path d="M0 0 C3.3 0.99 6.6 1.98 10 3 C10 3.33 10 3.66 10 4 C6.7 3.67 3.4 3.34 0 3 C0 2.01 0 1.02 0 0 Z " fill="#6831C3" transform="translate(330,24)"/>
<path d="M0 0 C5.75 3.625 5.75 3.625 8 7 C4.21388773 6.45912682 2.44599233 4.88277668 0 2 C0 1.34 0 0.68 0 0 Z " fill="#8672E8" transform="translate(212,253)"/>
<path d="M0 0 C3.45925163 1.2491742 6.14693203 2.67527795 9 5 C8.01 5.33 7.02 5.66 6 6 C2.8125 3.625 2.8125 3.625 0 1 C0 0.67 0 0.34 0 0 Z " fill="#8771E4" transform="translate(220,232)"/>
<path d="M0 0 C-3.465 2.97 -3.465 2.97 -7 6 C-6.75 3.625 -6.75 3.625 -6 1 C-2.69333333 -1.34666667 -2.69333333 -1.34666667 0 0 Z " fill="#815CE9" transform="translate(264,202)"/>
<path d="M0 0 C0.33 0 0.66 0 1 0 C1.125 5.75 1.125 5.75 0 8 C-0.99 8 -1.98 8 -3 8 C-1.125 2.25 -1.125 2.25 0 0 Z " fill="#3467C9" transform="translate(24,84)"/>
<path d="M0 0 C0.33 1.32 0.66 2.64 1 4 C-1.97 6.475 -1.97 6.475 -5 9 C-3.7508258 5.54074837 -2.32472205 2.85306797 0 0 Z " fill="#3C5FC3" transform="translate(35,66)"/>
<path d="M0 0 C3.37503669 1.1858237 5.64722731 2.27573689 8 5 C5.125 4.75 5.125 4.75 2 4 C0.625 1.9375 0.625 1.9375 0 0 Z " fill="#6E2EC8" transform="translate(353,35)"/>
<path d="M0 0 C0.99 0 1.98 0 3 0 C3.33 2.31 3.66 4.62 4 7 C2 5.1875 2 5.1875 0 3 C0 2.01 0 1.02 0 0 Z " fill="#3C6AD6" transform="translate(33,364)"/>
<path d="M0 0 C0.99 0.495 0.99 0.495 2 1 C2 1.99 2 2.98 2 4 C2.66 4 3.32 4 4 4 C4.33 5.32 4.66 6.64 5 8 C4.01 8 3.02 8 2 8 C1.34 5.36 0.68 2.72 0 0 Z " fill="#3F73E9" transform="translate(29,356)"/>
<path d="M0 0 C-0.33 0.66 -0.66 1.32 -1 2 C-3.875 2.125 -3.875 2.125 -7 2 C-7.66 1.34 -8.32 0.68 -9 0 C-3.375 -1.125 -3.375 -1.125 0 0 Z " fill="#DBE6FE" transform="translate(116,276)"/>
<path d="M0 0 C0.598125 0.763125 1.19625 1.52625 1.8125 2.3125 C3.46959332 4.3483575 5.10297674 6.1978279 7 8 C4.625 7.6875 4.625 7.6875 2 7 C0 4 0 4 0 0 Z " fill="#6F7FE6" transform="translate(102,270)"/>
</svg>
